<svg width="36" height="36" viewBox="0 0 36 36" fill="none" xmlns="http://www.w3.org/2000/svg">
<path d="M22.9997 35.9166H12.9997C3.94967 35.9166 0.0830078 32.0499 0.0830078 22.9999V12.9999C0.0830078 3.94992 3.94967 0.083252 12.9997 0.083252H22.9997C32.0497 0.083252 35.9163 3.94992 35.9163 12.9999V22.9999C35.9163 32.0499 32.0497 35.9166 22.9997 35.9166ZM12.9997 2.58325C5.31634 2.58325 2.58301 5.31659 2.58301 12.9999V22.9999C2.58301 30.6833 5.31634 33.4166 12.9997 33.4166H22.9997C30.683 33.4166 33.4163 30.6833 33.4163 22.9999V12.9999C33.4163 5.31659 30.683 2.58325 22.9997 2.58325H12.9997Z" fill="#06367F"/>
<path d="M21.5163 27.3501C21.1997 27.3501 20.883 27.2334 20.633 26.9834C20.1497 26.5001 20.1497 25.7001 20.633 25.2168L25.6997 20.1501C26.183 19.6668 26.983 19.6668 27.4663 20.1501C27.9497 20.6334 27.9497 21.4334 27.4663 21.9168L22.3997 26.9834C22.1663 27.2168 21.8497 27.3501 21.5163 27.3501Z" fill="#06367F"/>
<path d="M26.5837 22.2834H9.41699C8.73366 22.2834 8.16699 21.7168 8.16699 21.0334C8.16699 20.3501 8.73366 19.7834 9.41699 19.7834H26.6003C27.2837 19.7834 27.8503 20.3501 27.8503 21.0334C27.8503 21.7168 27.2837 22.2834 26.5837 22.2834Z" fill="#06367F"/>
<path d="M9.41673 16.2168C9.10006 16.2168 8.7834 16.1001 8.5334 15.8501C8.05007 15.3668 8.05007 14.5668 8.5334 14.0835L13.6001 9.0168C14.0834 8.53346 14.8834 8.53346 15.3667 9.0168C15.8501 9.50013 15.8501 10.3001 15.3667 10.7835L10.3001 15.8501C10.0501 16.1001 9.7334 16.2168 9.41673 16.2168Z" fill="#06367F"/>
<path d="M26.5837 16.2168H9.41699C8.73366 16.2168 8.16699 15.6501 8.16699 14.9668C8.16699 14.2835 8.73366 13.7168 9.41699 13.7168H26.6003C27.2837 13.7168 27.8503 14.2835 27.8503 14.9668C27.8503 15.6501 27.2837 16.2168 26.5837 16.2168Z" fill="#06367F"/>
</svg>
