<svg width="63" height="62" viewBox="0 0 63 62" fill="none" xmlns="http://www.w3.org/2000/svg">
<rect width="63" height="62" rx="9" fill="#59CAE4"/>
<path d="M21.875 19H42.125C43.3702 18.9999 44.5682 19.4763 45.4733 20.3315C46.3785 21.1867 46.922 22.3558 46.9925 23.599L47 23.875V38.125C47.0001 39.3702 46.5237 40.5682 45.6685 41.4733C44.8133 42.3785 43.6442 42.922 42.401 42.9925L42.125 43H21.875C20.6298 43.0001 19.4318 42.5237 18.5267 41.6685C17.6216 40.8133 17.078 39.6442 17.0075 38.401L17 38.125V23.875C16.9999 22.6298 17.4763 21.4318 18.3315 20.5267C19.1867 19.6216 20.3558 19.078 21.599 19.0075L21.875 19H42.125H21.875ZM44.75 27.0595L32.525 33.4945C32.387 33.5674 32.2353 33.6108 32.0795 33.6219C31.9238 33.633 31.7675 33.6116 31.6205 33.559L31.4765 33.496L19.25 27.061V38.125C19.25 38.7838 19.4978 39.4185 19.944 39.9031C20.3903 40.3877 21.0024 40.6868 21.659 40.741L21.875 40.75H42.125C42.784 40.7499 43.4189 40.502 43.9036 40.0554C44.3882 39.6089 44.6871 38.9963 44.741 38.3395L44.75 38.125V27.0595ZM42.125 21.25H21.875C21.2162 21.25 20.5815 21.4978 20.0969 21.944C19.6123 22.3903 19.3132 23.0024 19.259 23.659L19.25 23.875V24.5185L32 31.228L44.75 24.517V23.875C44.7499 23.216 44.502 22.5811 44.0554 22.0964C43.6089 21.6118 42.9963 21.3129 42.3395 21.259L42.125 21.25Z" fill="white"/>
</svg>
