<svg width="63" height="62" viewBox="0 0 63 62" fill="none" xmlns="http://www.w3.org/2000/svg">
<rect width="63" height="62" rx="9" fill="#59CAE4"/>
<path d="M29.259 22.5732L24.0154 16.5208C23.4109 15.8233 22.3026 15.8264 21.6005 16.5301L17.2884 20.8497C16.005 22.1345 15.6377 24.0425 16.3801 25.5722C20.8156 34.7554 28.2221 42.1719 37.3995 46.62C38.9278 47.3624 40.8343 46.9951 42.1177 45.7102L46.4701 41.3503C47.1753 40.6451 47.1769 39.5307 46.4732 38.9262L40.3972 33.7108C39.7617 33.1652 38.7744 33.2365 38.1373 33.8751L36.0232 35.9923C35.9149 36.1057 35.7724 36.1805 35.6176 36.2051C35.4628 36.2297 35.3041 36.2029 35.166 36.1287C31.7102 34.1387 28.8436 31.2685 26.8581 27.8103C26.7837 27.672 26.7568 27.5131 26.7814 27.358C26.806 27.2029 26.8809 27.0601 26.9945 26.9517L29.1024 24.8422C29.741 24.2006 29.8108 23.2086 29.259 22.5716V22.5732Z" stroke="white" stroke-width="2" stroke-linecap="round" stroke-linejoin="round"/>
</svg>
