<svg width="20" height="22" viewBox="0 0 20 22" fill="none" xmlns="http://www.w3.org/2000/svg">
<path d="M2.92957 21.75C2.50957 21.75 2.11957 21.65 1.76957 21.45C0.99957 21 0.55957 20.09 0.55957 18.96V4.86C0.55957 2.32 2.62957 0.25 5.16957 0.25H14.8196C17.3596 0.25 19.4296 2.32 19.4296 4.86V18.95C19.4296 20.08 18.9896 20.99 18.2196 21.44C17.4496 21.89 16.4396 21.84 15.4496 21.29L10.5696 18.58C10.2796 18.42 9.70957 18.42 9.41957 18.58L4.53957 21.29C3.99957 21.59 3.44957 21.75 2.92957 21.75ZM5.17957 1.75C3.46957 1.75 2.06957 3.15 2.06957 4.86V18.95C2.06957 19.54 2.23957 19.98 2.53957 20.15C2.83957 20.32 3.30957 20.27 3.81957 19.98L8.69957 17.27C9.43957 16.86 10.5596 16.86 11.2996 17.27L16.1796 19.98C16.6896 20.27 17.1596 20.33 17.4596 20.15C17.7596 19.97 17.9296 19.53 17.9296 18.95V4.86C17.9296 3.15 16.5296 1.75 14.8196 1.75H5.17957Z" fill="#292D32"/>
<path d="M9.09027 12.2499C8.90027 12.2499 8.71027 12.1799 8.56027 12.0299L7.06027 10.5299C6.77027 10.2399 6.77027 9.75994 7.06027 9.46994C7.35027 9.17994 7.83027 9.17994 8.12027 9.46994L9.09027 10.4399L12.5603 6.96994C12.8503 6.67994 13.3303 6.67994 13.6203 6.96994C13.9103 7.25994 13.9103 7.73994 13.6203 8.02994L9.62027 12.0299C9.47027 12.1799 9.28027 12.2499 9.09027 12.2499Z" fill="#292D32"/>
</svg>
