<svg width="22" height="22" viewBox="0 0 22 22" fill="none" xmlns="http://www.w3.org/2000/svg">
<path d="M15.2804 21.1H11.4804C10.9204 21.1 9.70035 20.93 9.05035 20.28L6.02035 17.94L6.94035 16.75L10.0404 19.15C10.2904 19.39 10.9204 19.59 11.4804 19.59H15.2804C16.1804 19.59 17.1504 18.87 17.3504 18.06L19.7704 10.71C19.9304 10.27 19.9004 9.86999 19.6904 9.57999C19.4704 9.26999 19.0704 9.08999 18.5804 9.08999H14.5804C14.0604 9.08999 13.5804 8.86999 13.2504 8.48999C12.9104 8.09999 12.7604 7.57999 12.8404 7.03999L13.3404 3.82999C13.4604 3.26999 13.0804 2.63999 12.5404 2.45999C12.0504 2.27999 11.4204 2.53999 11.2004 2.85999L7.10035 8.95999L5.86035 8.12999L9.96035 2.02999C10.5904 1.08999 11.9704 0.63999 13.0504 1.04999C14.3004 1.45999 15.1004 2.83999 14.8204 4.11999L14.3304 7.26999C14.3204 7.33999 14.3204 7.43999 14.3904 7.51999C14.4404 7.56999 14.5104 7.59999 14.5904 7.59999H18.5904C19.5704 7.59999 20.4204 8.00999 20.9204 8.71999C21.4104 9.40999 21.5104 10.32 21.1904 11.2L18.8004 18.48C18.4304 19.93 16.8904 21.1 15.2804 21.1Z" fill="#292D32"/>
<path d="M4.37988 19.9999H3.37988C1.52988 19.9999 0.629883 19.1299 0.629883 17.3499V7.5499C0.629883 5.7699 1.52988 4.8999 3.37988 4.8999H4.37988C6.22988 4.8999 7.12988 5.7699 7.12988 7.5499V17.3499C7.12988 19.1299 6.22988 19.9999 4.37988 19.9999ZM3.37988 6.3999C2.28988 6.3999 2.12988 6.6599 2.12988 7.5499V17.3499C2.12988 18.2399 2.28988 18.4999 3.37988 18.4999H4.37988C5.46988 18.4999 5.62988 18.2399 5.62988 17.3499V7.5499C5.62988 6.6599 5.46988 6.3999 4.37988 6.3999H3.37988Z" fill="#292D32"/>
</svg>
