<svg width="22" height="22" viewBox="0 0 22 22" fill="none" xmlns="http://www.w3.org/2000/svg">
<path d="M18.9 21.75H3.1C1.18 21.75 0.25 20.77 0.25 18.77V14.73C0.25 12.72 1.18 11.75 3.1 11.75H18.9C20.82 11.75 21.75 12.73 21.75 14.73V18.77C21.75 20.77 20.82 21.75 18.9 21.75ZM3.1 13.25C2.09 13.25 1.75 13.46 1.75 14.73V18.77C1.75 20.04 2.09 20.25 3.1 20.25H18.9C19.91 20.25 20.25 20.04 20.25 18.77V14.73C20.25 13.46 19.91 13.25 18.9 13.25H3.1Z" fill="#00244B"/>
<path d="M11.9 10.25H3.1C1.18 10.25 0.25 9.27 0.25 7.27V3.23C0.25 1.22 1.18 0.25 3.1 0.25H11.9C13.82 0.25 14.75 1.23 14.75 3.23V7.27C14.75 9.27 13.82 10.25 11.9 10.25ZM3.1 1.75C2.09 1.75 1.75 1.96 1.75 3.23V7.27C1.75 8.54 2.09 8.75 3.1 8.75H11.9C12.91 8.75 13.25 8.54 13.25 7.27V3.23C13.25 1.96 12.91 1.75 11.9 1.75H3.1Z" fill="#00244B"/>
</svg>
